<svg xmlns="http://www.w3.org/2000/svg" xmlns:xlink="http://www.w3.org/1999/xlink" width="500" zoomAndPan="magnify" viewBox="0 0 375 374.999991" height="500" preserveAspectRatio="xMidYMid meet" version="1.0"><defs><clipPath id="874d7bb9b7"><path d="M 6 131 L 374 131 L 374 350.863281 L 6 350.863281 Z M 6 131 " clip-rule="nonzero"/></clipPath><clipPath id="31fdb17f67"><path d="M 0 23.863281 L 373 23.863281 L 373 108 L 0 108 Z M 0 23.863281 " clip-rule="nonzero"/></clipPath></defs><path fill="#ff3131" d="M 4.910156 77.539062 L 4.910156 132.570312 C 4.910156 133.097656 4.960938 133.625 5.066406 134.144531 C 5.167969 134.664062 5.324219 135.167969 5.527344 135.660156 C 5.730469 136.148438 5.980469 136.617188 6.277344 137.054688 C 6.574219 137.496094 6.910156 137.90625 7.289062 138.28125 C 7.667969 138.65625 8.078125 138.992188 8.519531 139.285156 C 8.964844 139.578125 9.433594 139.828125 9.925781 140.03125 C 10.417969 140.234375 10.925781 140.386719 11.449219 140.492188 C 11.972656 140.59375 12.503906 140.648438 13.035156 140.648438 L 35.484375 140.648438 C 36.015625 140.648438 36.546875 140.59375 37.070312 140.492188 C 37.59375 140.386719 38.101562 140.234375 38.59375 140.03125 C 39.085938 139.828125 39.554688 139.578125 40 139.285156 C 40.441406 138.992188 40.855469 138.65625 41.230469 138.28125 C 41.609375 137.90625 41.945312 137.496094 42.242188 137.054688 C 42.539062 136.617188 42.789062 136.148438 42.992188 135.660156 C 43.195312 135.167969 43.351562 134.664062 43.457031 134.144531 C 43.558594 133.625 43.613281 133.097656 43.613281 132.570312 L 43.613281 77.539062 C 43.613281 77.007812 43.558594 76.484375 43.457031 75.964844 C 43.351562 75.441406 43.195312 74.9375 42.992188 74.449219 C 42.789062 73.957031 42.539062 73.492188 42.242188 73.050781 C 41.945312 72.609375 41.609375 72.203125 41.230469 71.828125 C 40.855469 71.453125 40.441406 71.117188 40 70.824219 C 39.554688 70.527344 39.085938 70.277344 38.59375 70.074219 C 38.101562 69.875 37.59375 69.71875 37.070312 69.617188 C 36.546875 69.511719 36.015625 69.460938 35.484375 69.460938 L 13.035156 69.460938 C 12.503906 69.460938 11.972656 69.511719 11.449219 69.617188 C 10.925781 69.71875 10.417969 69.871094 9.925781 70.074219 C 9.433594 70.277344 8.964844 70.527344 8.519531 70.824219 C 8.078125 71.117188 7.667969 71.453125 7.289062 71.828125 C 6.910156 72.203125 6.574219 72.609375 6.277344 73.050781 C 5.980469 73.492188 5.730469 73.957031 5.527344 74.449219 C 5.324219 74.9375 5.167969 75.441406 5.066406 75.964844 C 4.960938 76.484375 4.910156 77.007812 4.910156 77.539062 " fill-opacity="1" fill-rule="evenodd"/><g clip-path="url(#874d7bb9b7)"><path fill="#ff3131" d="M 13.195312 131.988281 L 366.09375 131.988281 C 366.550781 131.988281 367.007812 132.03125 367.457031 132.121094 C 367.910156 132.210938 368.347656 132.34375 368.769531 132.519531 C 369.195312 132.695312 369.597656 132.910156 369.980469 133.167969 C 370.363281 133.421875 370.71875 133.714844 371.042969 134.039062 C 371.367188 134.363281 371.65625 134.714844 371.914062 135.097656 C 372.167969 135.480469 372.382812 135.882812 372.558594 136.308594 C 372.734375 136.734375 372.867188 137.171875 372.957031 137.621094 C 373.046875 138.074219 373.09375 138.527344 373.09375 138.988281 L 373.09375 344.136719 C 373.09375 344.597656 373.046875 345.050781 372.957031 345.503906 C 372.867188 345.953125 372.734375 346.390625 372.558594 346.816406 C 372.382812 347.242188 372.167969 347.644531 371.914062 348.027344 C 371.65625 348.410156 371.367188 348.761719 371.042969 349.085938 C 370.71875 349.414062 370.363281 349.703125 369.980469 349.957031 C 369.597656 350.214844 369.195312 350.429688 368.769531 350.605469 C 368.347656 350.78125 367.910156 350.914062 367.457031 351.003906 C 367.007812 351.09375 366.550781 351.136719 366.09375 351.136719 L 13.195312 351.136719 C 12.734375 351.136719 12.28125 351.09375 11.828125 351.003906 C 11.378906 350.914062 10.941406 350.78125 10.515625 350.605469 C 10.09375 350.429688 9.6875 350.214844 9.304688 349.957031 C 8.925781 349.703125 8.570312 349.414062 8.246094 349.085938 C 7.921875 348.761719 7.628906 348.410156 7.375 348.027344 C 7.121094 347.644531 6.902344 347.242188 6.726562 346.816406 C 6.550781 346.390625 6.417969 345.953125 6.328125 345.503906 C 6.238281 345.050781 6.195312 344.597656 6.195312 344.136719 L 6.195312 138.988281 C 6.195312 138.527344 6.238281 138.074219 6.328125 137.621094 C 6.417969 137.171875 6.550781 136.734375 6.726562 136.308594 C 6.902344 135.882812 7.121094 135.480469 7.375 135.097656 C 7.628906 134.714844 7.921875 134.363281 8.246094 134.039062 C 8.570312 133.714844 8.925781 133.421875 9.304688 133.167969 C 9.6875 132.910156 10.09375 132.695312 10.515625 132.519531 C 10.941406 132.34375 11.378906 132.210938 11.828125 132.121094 C 12.28125 132.03125 12.734375 131.988281 13.195312 131.988281 " fill-opacity="1" fill-rule="evenodd"/></g><path fill="#ff3131" d="M 4.480469 107.3125 L 374.796875 107.3125 L 374.796875 145.78125 L 4.480469 145.78125 Z M 4.480469 107.3125 " fill-opacity="1" fill-rule="evenodd"/><path fill="#000000" d="M 43.757812 143.628906 L 79.1875 143.628906 L 97.835938 109.460938 L 62.40625 109.460938 Z M 43.757812 143.628906 " fill-opacity="1" fill-rule="evenodd"/><path fill="#000000" d="M 134.484375 143.628906 L 169.917969 143.628906 L 188.566406 109.460938 L 153.132812 109.460938 Z M 134.484375 143.628906 " fill-opacity="1" fill-rule="evenodd"/><path fill="#000000" d="M 225.214844 143.628906 L 260.648438 143.628906 L 279.296875 109.460938 L 243.863281 109.460938 Z M 225.214844 143.628906 " fill-opacity="1" fill-rule="evenodd"/><path fill="#000000" d="M 315.945312 143.628906 L 351.375 143.628906 L 370.027344 109.460938 L 334.59375 109.460938 Z M 315.945312 143.628906 " fill-opacity="1" fill-rule="evenodd"/><g clip-path="url(#31fdb17f67)"><path fill="#ff3131" d="M 367.644531 23.867188 L 0.152344 69.320312 L 4.933594 107.492188 L 372.425781 62.039062 Z M 367.644531 23.867188 " fill-opacity="1" fill-rule="evenodd"/></g><path fill="#000000" d="M 367.476562 60.484375 L 332.316406 64.832031 L 309.566406 33.214844 L 344.726562 28.867188 Z M 367.476562 60.484375 " fill-opacity="1" fill-rule="evenodd"/><path fill="#000000" d="M 277.441406 71.617188 L 242.28125 75.96875 L 219.53125 44.351562 L 254.691406 40 Z M 277.441406 71.617188 " fill-opacity="1" fill-rule="evenodd"/><path fill="#000000" d="M 187.410156 82.753906 L 152.246094 87.101562 L 129.496094 55.484375 L 164.65625 51.136719 Z M 187.410156 82.753906 " fill-opacity="1" fill-rule="evenodd"/><path fill="#000000" d="M 97.375 93.890625 L 62.210938 98.238281 L 39.460938 66.621094 L 74.621094 62.273438 Z M 97.375 93.890625 " fill-opacity="1" fill-rule="evenodd"/><path stroke-linecap="butt" transform="matrix(0.537683, -0.0665006, 0.0669067, 0.534418, -47.096791, 2.3607)" fill-opacity="1" fill="#000000" fill-rule="evenodd" stroke-linejoin="miter" d="M 125.712573 168.077242 C 125.718652 169.020905 125.630832 169.960193 125.458056 170.881601 C 125.277231 171.809316 125.012347 172.711952 124.657145 173.581422 C 124.301048 174.45809 123.863578 175.288085 123.344737 176.071408 C 122.825 176.861929 122.232836 177.592272 121.569142 178.255239 C 120.904552 178.925404 120.18274 179.529974 119.398342 180.053662 C 118.613945 180.577351 117.788425 181.022828 116.921782 181.390095 C 116.048881 181.749274 115.150061 182.024825 114.226218 182.20955 C 113.302375 182.394274 112.368714 182.482756 111.424338 182.482191 C 110.479962 182.481627 109.546334 182.394688 108.625245 182.206978 C 107.696107 182.025576 106.80097 181.746074 105.929994 181.389176 C 105.059914 181.02508 104.236354 180.57906 103.452157 180.050226 C 102.667066 179.52859 101.942801 178.926811 101.277573 178.259285 C 100.619499 177.592648 100.027615 176.861155 99.50818 176.072893 C 98.988745 175.28463 98.547122 174.454885 98.190465 173.584547 C 97.834703 172.707011 97.568374 171.811366 97.39327 170.883217 C 97.218166 169.955068 97.130703 169.023205 97.138932 168.081322 C 97.132852 167.137659 97.212623 166.204678 97.393448 165.276963 C 97.567119 164.348358 97.838262 163.453809 98.19436 162.577142 C 98.550457 161.700474 98.987926 160.870479 99.506768 160.087156 C 100.026505 159.296635 100.617773 158.57349 101.282363 157.903325 C 101.946952 157.23316 102.667869 156.635788 103.453162 156.104902 C 104.230406 155.580323 105.06308 155.135736 105.928827 154.775667 C 106.802624 154.40929 107.700548 154.140937 108.625286 153.949014 C 109.549129 153.76429 110.482791 153.675808 111.427167 153.676373 C 112.364389 153.676047 113.304275 153.771074 114.22626 153.951586 C 115.147348 154.139295 116.050535 154.41249 116.920615 154.776586 C 117.79159 155.133484 118.615151 155.579504 119.399347 156.108338 C 120.183543 156.637172 120.901549 157.230863 121.566777 157.898389 C 122.23111 158.573114 122.823889 159.297409 123.343324 160.085671 C 123.862759 160.873934 124.304382 161.703679 124.653886 162.573127 C 125.009647 163.450663 125.275976 164.346308 125.458235 165.275347 C 125.633339 166.203496 125.720802 167.135359 125.712573 168.077242 Z M 125.712573 168.077242 " stroke="#ffffff" stroke-width="4" stroke-opacity="1" stroke-miterlimit="4"/><path stroke-linecap="butt" transform="matrix(0.781073, 0, 0, 0.781073, -103.254363, -197.117478)" fill="none" stroke-linejoin="miter" d="M 137.851848 439.069949 L 612.049391 439.069949 " stroke="#cccccc" stroke-width="0.692" stroke-opacity="1" stroke-miterlimit="4"/><path stroke-linecap="butt" transform="matrix(0.54183, 0, 0, 0.538542, -35.443971, -45.269119)" fill="none" stroke-linejoin="miter" d="M 104.122324 618.350066 L 726.701102 618.350066 " stroke="#ffffff" stroke-width="4" stroke-opacity="1" stroke-miterlimit="4"/><path stroke-linecap="butt" transform="matrix(0.54183, 0, 0, 0.538542, -46.704698, -45.269119)" fill="none" stroke-linejoin="miter" d="M 307.957963 713.151771 L 307.957963 619.314766 " stroke="#ffffff" stroke-width="4" stroke-opacity="1" stroke-miterlimit="4"/><path stroke-linecap="butt" transform="matrix(0.54183, 0, 0, 0.538542, -46.704698, -45.269119)" fill="none" stroke-linejoin="miter" d="M 564.430976 713.151771 L 564.430976 619.314766 " stroke="#ffffff" stroke-width="4" stroke-opacity="1" stroke-miterlimit="4"/><path stroke-linecap="butt" transform="matrix(0.54183, 0, 0, 0.538542, -35.443971, -45.269119)" fill="none" stroke-linejoin="miter" d="M 104.122324 524.4913 L 726.701102 524.4913 " stroke="#ffffff" stroke-width="4" stroke-opacity="1" stroke-miterlimit="4"/><path stroke-linecap="butt" transform="matrix(0.54183, 0, 0, 0.538542, -35.443971, -45.269119)" fill="none" stroke-linejoin="miter" d="M 104.122324 430.632535 L 726.701102 430.632535 " stroke="#ffffff" stroke-width="4" stroke-opacity="1" stroke-miterlimit="4"/></svg>